<?xml version="1.0" encoding="UTF-8" standalone="no"?>
<svg
   xmlns:dc="http://purl.org/dc/elements/1.1/"
   xmlns:cc="http://creativecommons.org/ns#"
   xmlns:rdf="http://www.w3.org/1999/02/22-rdf-syntax-ns#"
   xmlns:svg="http://www.w3.org/2000/svg"
   xmlns="http://www.w3.org/2000/svg"
   id="svg1044"
   version="1.1"
   viewBox="0 0 194.39995 44.590099"
   height="44.590099mm"
   width="194.39995mm">
  <defs
     id="defs1038" />
  <metadata
     id="metadata1041">
    <rdf:RDF>
      <cc:Work
         rdf:about="">
        <dc:format>image/svg+xml</dc:format>
        <dc:type
           rdf:resource="http://purl.org/dc/dcmitype/StillImage" />
        <dc:title></dc:title>
      </cc:Work>
    </rdf:RDF>
  </metadata>
  <g
     transform="translate(-10.164157,-47.975938)"
     id="layer1">
    <g
       style="fill:#ff6600"
       transform="matrix(-1.6704201,-1.0160456,1.0160456,-1.6704201,14.525604,269.2573)"
       id="g841">
      <path
         style="opacity:1;fill:#ff6600;fill-opacity:1;stroke:none;stroke-width:0.48899999;stroke-linecap:round;stroke-linejoin:round;stroke-miterlimit:4;stroke-dasharray:none;stroke-dashoffset:0;stroke-opacity:1"
         id="path823"
         d="m 43.561752,91.147638 -5.280845,-9.146693 10.561691,0 z"
         transform="rotate(15,43.561752,91.130226)" />
      <path
         transform="rotate(-45,46.683403,90.763279)"
         d="m 43.561752,91.147638 -5.280845,-9.146693 10.561691,0 z"
         id="path825"
         style="opacity:1;fill:#ff6600;fill-opacity:1;stroke:none;stroke-width:0.48899999;stroke-linecap:round;stroke-linejoin:round;stroke-miterlimit:4;stroke-dasharray:none;stroke-dashoffset:0;stroke-opacity:1" />
      <path
         style="opacity:1;fill:#ff6600;fill-opacity:1;stroke:none;stroke-width:0.48899999;stroke-linecap:round;stroke-linejoin:round;stroke-miterlimit:4;stroke-dasharray:none;stroke-dashoffset:0;stroke-opacity:1"
         id="path827"
         d="m 43.561752,91.147638 -5.280845,-9.146693 10.561691,0 z"
         transform="rotate(-105,46.169814,90.823651)" />
      <path
         transform="rotate(-165,45.971576,90.846954)"
         d="m 43.561752,91.147638 -5.280845,-9.146693 10.561691,0 z"
         id="path829"
         style="opacity:1;fill:#ff6600;fill-opacity:1;stroke:none;stroke-width:0.48899999;stroke-linecap:round;stroke-linejoin:round;stroke-miterlimit:4;stroke-dasharray:none;stroke-dashoffset:0;stroke-opacity:1" />
      <path
         style="opacity:1;fill:#ff6600;fill-opacity:1;stroke:none;stroke-width:0.48899999;stroke-linecap:round;stroke-linejoin:round;stroke-miterlimit:4;stroke-dasharray:none;stroke-dashoffset:0;stroke-opacity:1"
         id="path831"
         d="m 43.561752,91.147638 -5.280845,-9.146693 10.561691,0 z"
         transform="rotate(135,45.801345,90.866965)" />
      <path
         transform="rotate(75,45.524103,90.899555)"
         d="m 43.561752,91.147638 -5.280845,-9.146693 10.561691,0 z"
         id="path833"
         style="opacity:1;fill:#ff6600;fill-opacity:1;stroke:none;stroke-width:0.48899999;stroke-linecap:round;stroke-linejoin:round;stroke-miterlimit:4;stroke-dasharray:none;stroke-dashoffset:0;stroke-opacity:1" />
    </g>
    <path
       d="m 52.589969,82.962814 q 0.348961,-3.232324 0.550963,-5.821847 0.202005,-2.58953 0.34896,-6.005503 0.14692,-3.415973 0.22038,-7.199259 0.07346,-3.801652 0.07346,-6.042236 2.295681,0.05512 3.709823,0.05512 1.469235,0 3.581262,-0.07342 2.112028,-0.09187 4.113862,-0.09187 2.350781,0 4.187326,0.183667 1.377408,0.128546 2.4977,0.532603 1.138659,0.40404 1.910008,0.991736 0.771349,0.569322 1.285582,1.285574 0.514233,0.716253 0.789716,1.689625 0.293839,0.955003 0.293839,2.056931 0,1.230486 -0.312213,2.314051 -0.312213,1.065196 -0.991732,2.020194 -0.661156,0.936643 -1.689621,1.634525 -1.010103,0.679526 -2.846647,1.395779 l 0.954998,2.332425 q 0.40404,0.973361 0.863176,1.983464 l 2.46097,5.38108 q 0.165294,0.348961 0.587697,1.377409 -3.0303,-0.03678 -4.077133,-0.03678 -1.322311,0 -4.334248,0.03678 -0.293839,-0.955002 -1.065195,-3.544533 -0.312213,-1.083558 -0.5326,-1.671255 -0.440769,-1.303948 -1.303945,-3.654725 l -1.891645,-5.197421 q 0.991736,0.183667 1.946742,0.183667 1.340678,0 2.42424,-0.404043 1.101926,-0.404043 1.652888,-1.248848 0.56933,-0.844813 0.56933,-1.781455 0,-0.789713 -0.422407,-1.377409 -0.422402,-0.606055 -1.340675,-0.899905 -0.899909,-0.293839 -2.79155,-0.293839 -0.642793,0 -1.340678,0.03678 -0.679523,0.01848 -1.597795,0.03678 -0.238753,3.764923 -0.422406,9.182733 -0.183668,5.417811 -0.238754,10.633598 -3.067033,-0.03678 -3.985305,-0.03678 -1.065196,0 -3.838379,0.03678 z"
       style="font-style:normal;font-variant:normal;font-weight:normal;font-stretch:normal;font-size:medium;line-height:125%;font-family:'Eras Bold ITC';-inkscape-font-specification:'Eras Bold ITC';letter-spacing:0px;word-spacing:0px;fill:#ffffff;fill-opacity:1;stroke:none;stroke-width:0.94031131px;stroke-linecap:butt;stroke-linejoin:miter;stroke-opacity:1"
       id="path1642" />
    <path
       d="m 79.230022,57.893969 q 2.865013,0.03678 4.040402,0.03678 1.469235,0 3.911842,-0.03678 L 86.6313,65.699286 q -0.165293,2.203855 -0.257127,4.132229 -0.07346,1.928371 -0.07346,2.662991 0,1.395778 0.202041,2.332414 0.202006,0.936631 0.734616,1.597794 0.532599,0.642786 1.469238,0.973362 0.955003,0.330587 1.983468,0.330587 0.881542,0 1.652892,-0.202041 0.606059,-0.165293 1.083562,-0.459136 0.422406,-0.275501 0.734619,-0.642786 0.385673,-0.440773 0.679523,-1.101932 0.293839,-0.624423 0.440769,-1.616162 0.165293,-1.010099 0.440773,-4.591361 0.238753,-3.048667 0.367306,-5.583097 0.110207,-2.460974 0.202006,-5.638194 2.773187,0.03678 4.370984,0.03678 l 3.72818,-0.03678 -0.89991,13.039469 q -0.0185,0.367313 -0.0185,0.606066 -0.0734,3.820016 -0.4775,5.39944 -0.38568,1.561065 -1.30395,2.718091 -0.91827,1.157025 -2.681351,2.093661 -1.763081,0.918269 -4.003669,1.303948 -2.240584,0.385677 -4.536268,0.385677 -2.056931,0 -3.966936,-0.293839 -1.763084,-0.29384 -3.177226,-0.844813 -1.414139,-0.569333 -2.460971,-1.322315 -0.955002,-0.69789 -1.469235,-1.414142 -0.514232,-0.734619 -0.808082,-1.744722 -0.330587,-1.138648 -0.330587,-2.442596 0,-0.440773 0.03671,-1.322316 0.03671,-0.899905 0.165293,-2.571167 l 0.238754,-2.938473 q 0.09183,-1.157026 0.202005,-3.39761 z"
       style="font-style:normal;font-variant:normal;font-weight:normal;font-stretch:normal;font-size:medium;line-height:125%;font-family:'Eras Bold ITC';-inkscape-font-specification:'Eras Bold ITC';letter-spacing:0px;word-spacing:0px;fill:#ffffff;fill-opacity:1;stroke:none;stroke-width:0.94031131px;stroke-linecap:butt;stroke-linejoin:miter;stroke-opacity:1"
       id="path1644" />
    <path
       d="m 106.14486,82.962814 q 0.38568,-3.728186 0.5326,-5.987133 0.22038,-3.342517 0.42241,-9.182734 0.20201,-5.858583 0.20201,-7.878784 v -2.020194 q 5.528,0.03678 10.28465,0.03678 4.79339,0 9.21946,-0.03678 -0.29384,4.224048 -0.29384,5.527996 l -1.59779,-0.05509 -1.28559,-0.01848 -1.28558,-0.01848 h -3.61799 q -0.62443,0 -3.65473,0.03678 l -0.16529,4.279152 2.66299,0.05509 h 2.9752 q 1.28558,0 3.93021,-0.05509 -0.20201,3.471073 -0.20201,5.436173 -2.95685,-0.09187 -4.38934,-0.09187 -2.42425,0 -5.28925,0.09187 l -0.18367,6.611566 -0.0185,2.460971 v 0.808075 l -3.94857,-0.03678 q -0.45914,0 -4.29752,0.03678 z"
       style="font-style:normal;font-variant:normal;font-weight:normal;font-stretch:normal;font-size:medium;line-height:125%;font-family:'Eras Bold ITC';-inkscape-font-specification:'Eras Bold ITC';letter-spacing:0px;word-spacing:0px;fill:#ffffff;fill-opacity:1;stroke:none;stroke-width:0.94031131px;stroke-linecap:butt;stroke-linejoin:miter;stroke-opacity:1"
       id="path1646" />
    <path
       d="m 135.94273,82.962814 q 0.91827,-8.925607 1.10192,-19.651035 l -7.82368,0.202006 0.0919,-2.038564 q 0.0734,-1.634525 0.11021,-3.581263 5.21579,0.03678 12.15793,0.03678 l 4.53627,-0.01848 h 4.40771 l 2.38751,-0.01848 -0.11021,1.781448 q -0.0734,1.432509 -0.11017,2.369141 -0.0185,0.936635 -0.0185,1.414145 -3.9302,-0.183667 -6.48301,-0.183667 h -1.28557 q -0.2755,3.250683 -0.42241,6.005503 -0.20204,3.948576 -0.31221,7.676758 -0.11021,3.709829 -0.11021,6.005507 -3.01193,-0.03678 -3.89348,-0.03678 -0.78971,0 -4.22404,0.03678 z"
       style="font-style:normal;font-variant:normal;font-weight:normal;font-stretch:normal;font-size:medium;line-height:125%;font-family:'Eras Bold ITC';-inkscape-font-specification:'Eras Bold ITC';letter-spacing:0px;word-spacing:0px;fill:#ffffff;fill-opacity:1;stroke:none;stroke-width:0.94031131px;stroke-linecap:butt;stroke-linejoin:miter;stroke-opacity:1"
       id="path1648" />
    <path
       d="m 154.44277,82.962814 q 0.45914,-4.738288 0.66115,-7.933878 0.22038,-3.195583 0.42241,-8.484833 0.22038,-5.307629 0.22038,-7.033973 l -0.0185,-1.616161 q 4.33424,0.03678 10.48667,0.03678 5.67493,0 10.00917,-0.03678 l -0.0368,0.606059 q -0.0185,0.220379 -0.0919,1.597795 l -0.11017,2.001831 q -0.0368,0.642796 -0.0368,1.303948 -3.54454,-0.146919 -5.95041,-0.146919 -2.64462,0 -3.58127,0.01848 -0.91827,0 -2.88337,0.07342 l -0.22038,4.205685 q 2.16713,0.05509 5.05051,0.05509 1.02846,0 5.4729,-0.128545 -0.18367,2.35078 -0.34892,5.601463 -3.17723,-0.03678 -4.88522,-0.03678 -2.53443,0 -5.67492,0.128546 l -0.22038,4.462801 h 2.11203 q 0.93664,0 3.87511,-0.05509 l 3.80165,-0.09187 q 0.84481,-0.01848 2.82828,-0.14692 -0.22038,2.718091 -0.36731,5.619827 -4.48117,-0.03678 -9.82552,-0.03678 l -8.0808,0.01848 z"
       style="font-style:normal;font-variant:normal;font-weight:normal;font-stretch:normal;font-size:medium;line-height:125%;font-family:'Eras Bold ITC';-inkscape-font-specification:'Eras Bold ITC';letter-spacing:0px;word-spacing:0px;fill:#ffffff;fill-opacity:1;stroke:none;stroke-width:0.94031131px;stroke-linecap:butt;stroke-linejoin:miter;stroke-opacity:1"
       id="path1650" />
    <path
       d="m 176.46497,82.962814 q 2.14876,-2.718084 5.21579,-6.831946 3.08539,-4.113862 4.77503,-6.53811 l -2.16714,-3.654725 q -0.60606,-0.991729 -1.74471,-2.773177 l -1.83655,-2.84665 q -0.67952,-1.065196 -1.52433,-2.424237 2.36915,0.03678 4.84848,0.03678 1.96511,0 4.2057,-0.03678 0.80809,1.597798 1.89165,3.471065 1.1019,1.854915 1.7447,3.23232 0.73463,-1.267208 2.00182,-3.14049 1.26722,-1.891641 2.22224,-3.562895 1.94674,0.03678 4.2424,0.03678 1.48764,0 4.22406,-0.03678 -1.32231,1.891644 -3.93019,5.36271 -2.60791,3.471073 -4.94032,6.850319 2.97521,5.068861 8.08079,12.855816 -2.90171,-0.03678 -4.35261,-0.03678 -2.42424,0 -4.79336,0.03678 -0.71626,-1.469239 -2.0202,-3.709823 -1.2856,-2.258947 -2.24058,-4.150588 -0.71626,1.285582 -2.35078,3.617989 -1.63456,2.332414 -2.88339,4.242422 -2.68136,-0.03678 -4.24242,-0.03678 -1.72636,0 -4.42608,0.03678 z"
       style="font-style:normal;font-variant:normal;font-weight:normal;font-stretch:normal;font-size:medium;line-height:125%;font-family:'Eras Bold ITC';-inkscape-font-specification:'Eras Bold ITC';letter-spacing:0px;word-spacing:0px;fill:#ffffff;fill-opacity:1;stroke:none;stroke-width:0.94031131px;stroke-linecap:butt;stroke-linejoin:miter;stroke-opacity:1"
       id="path1652" />
  </g>
</svg>
